<svg width="20" height="20" viewBox="0 0 20 20" fill="none" xmlns="http://www.w3.org/2000/svg">
<path d="M9.99935 17.0837H5.83268C3.33268 17.0837 1.66602 15.8337 1.66602 12.917V7.08366C1.66602 4.16699 3.33268 2.91699 5.83268 2.91699H14.166C16.666 2.91699 18.3327 4.16699 18.3327 7.08366V9.58366" stroke="#1F1F1F" stroke-width="1.25" stroke-miterlimit="10" stroke-linecap="round" stroke-linejoin="round"/>
<path d="M14.1673 7.5L11.559 9.58333C10.7006 10.2667 9.29231 10.2667 8.43398 9.58333L5.83398 7.5" stroke="#1F1F1F" stroke-width="1.25" stroke-miterlimit="10" stroke-linecap="round" stroke-linejoin="round"/>
<path d="M16.0085 12.3086L13.0585 15.2586C12.9419 15.3752 12.8335 15.5919 12.8085 15.7502L12.6502 16.8752C12.5919 17.2836 12.8752 17.5669 13.2835 17.5086L14.4085 17.3502C14.5669 17.3252 14.7919 17.2169 14.9002 17.1002L17.8502 14.1502C18.3585 13.6419 18.6002 13.0502 17.8502 12.3002C17.1085 11.5586 16.5169 11.8002 16.0085 12.3086Z" stroke="#1F1F1F" stroke-width="1.25" stroke-miterlimit="10" stroke-linecap="round" stroke-linejoin="round"/>
<path d="M15.584 12.7334C15.834 13.6334 16.534 14.3334 17.434 14.5834" stroke="#1F1F1F" stroke-width="1.25" stroke-miterlimit="10" stroke-linecap="round" stroke-linejoin="round"/>
</svg>
